<svg width="512" height="512" viewBox="0 0 512 512" fill="none" xmlns="http://www.w3.org/2000/svg">
  <defs>
    <linearGradient id="bg" x1="32" y1="24" x2="468" y2="488" gradientUnits="userSpaceOnUse">
      <stop stop-color="#4F46E5"/>
      <stop offset="0.45" stop-color="#06B6D4"/>
      <stop offset="1" stop-color="#22C55E"/>
    </linearGradient>
    <radialGradient id="glow1" cx="0" cy="0" r="1" gradientUnits="userSpaceOnUse" gradientTransform="translate(120 140) rotate(31) scale(160 130)">
      <stop stop-color="white" stop-opacity="0.55"/>
      <stop offset="1" stop-color="white" stop-opacity="0"/>
    </radialGradient>
    <radialGradient id="glow2" cx="0" cy="0" r="1" gradientUnits="userSpaceOnUse" gradientTransform="translate(380 360) rotate(-12) scale(180 150)">
      <stop stop-color="white" stop-opacity="0.45"/>
      <stop offset="1" stop-color="white" stop-opacity="0"/>
    </radialGradient>
  </defs>

  <rect width="512" height="512" rx="48" fill="url(#bg)"/>

  <circle cx="120" cy="170" r="110" fill="url(#glow1)"/>
  <circle cx="380" cy="360" r="130" fill="url(#glow2)"/>

  <path d="M-30 310C52 282 92 246 170 232C246 218 302 250 368 222C434 194 470 154 560 156V560H-30V310Z" fill="rgba(255,255,255,0.16)"/>
  <path d="M-20 388C84 350 146 366 216 346C294 323 352 260 444 278C490 287 526 312 548 330V560H-20V388Z" fill="rgba(10,10,40,0.2)"/>

  <g opacity="0.55">
    <circle cx="94" cy="92" r="8" fill="white"/>
    <circle cx="160" cy="62" r="5" fill="white"/>
    <circle cx="420" cy="102" r="6" fill="white"/>
    <circle cx="452" cy="156" r="4" fill="white"/>
  </g>
</svg>
